<?xml version="1.0" encoding="UTF-8"?><svg xmlns="http://www.w3.org/2000/svg" xmlns:xlink="http://www.w3.org/1999/xlink" fill-opacity="1" color-rendering="auto" color-interpolation="auto" text-rendering="auto" stroke="black" stroke-linecap="square" width="1658" stroke-miterlimit="10" shape-rendering="auto" stroke-opacity="1" fill="black" stroke-dasharray="none" font-weight="normal" stroke-width="1" height="1068" font-family="'Dialog'" font-style="normal" stroke-linejoin="miter" font-size="12px" stroke-dashoffset="0" image-rendering="auto">
  <!--Generated by ySVG 2.5-->
  <defs id="genericDefs"/>
  <g>
    <defs id="defs1">
      <linearGradient x1="256.5385" gradientUnits="userSpaceOnUse" x2="336.5385" y1="122.4" y2="162.4" id="linearGradient1" spreadMethod="reflect">
        <stop stop-opacity="1" stop-color="rgb(232,238,247)" offset="0%"/>
        <stop stop-opacity="1" stop-color="rgb(183,201,227)" offset="100%"/>
      </linearGradient>
      <linearGradient x1="366.5385" gradientUnits="userSpaceOnUse" x2="446.5385" y1="122.4" y2="162.4" id="linearGradient2" spreadMethod="reflect">
        <stop stop-opacity="1" stop-color="rgb(232,238,247)" offset="0%"/>
        <stop stop-opacity="1" stop-color="rgb(183,201,227)" offset="100%"/>
      </linearGradient>
      <linearGradient x1="146.5385" gradientUnits="userSpaceOnUse" x2="226.5385" y1="122.4" y2="162.4" id="linearGradient3" spreadMethod="reflect">
        <stop stop-opacity="1" stop-color="rgb(232,238,247)" offset="0%"/>
        <stop stop-opacity="1" stop-color="rgb(183,201,227)" offset="100%"/>
      </linearGradient>
      <linearGradient x1="476.5385" gradientUnits="userSpaceOnUse" x2="556.5385" y1="122.4" y2="162.4" id="linearGradient4" spreadMethod="reflect">
        <stop stop-opacity="1" stop-color="rgb(232,238,247)" offset="0%"/>
        <stop stop-opacity="1" stop-color="rgb(183,201,227)" offset="100%"/>
      </linearGradient>
      <linearGradient x1="146.5385" gradientUnits="userSpaceOnUse" x2="226.5385" y1="446.8" y2="486.8" id="linearGradient5" spreadMethod="reflect">
        <stop stop-opacity="1" stop-color="rgb(232,238,247)" offset="0%"/>
        <stop stop-opacity="1" stop-color="rgb(183,201,227)" offset="100%"/>
      </linearGradient>
      <linearGradient x1="461.276" gradientUnits="userSpaceOnUse" x2="541.276" y1="446.8" y2="486.8" id="linearGradient6" spreadMethod="reflect">
        <stop stop-opacity="1" stop-color="rgb(232,238,247)" offset="0%"/>
        <stop stop-opacity="1" stop-color="rgb(183,201,227)" offset="100%"/>
      </linearGradient>
      <linearGradient x1="586.5385" gradientUnits="userSpaceOnUse" x2="666.5385" y1="122.4" y2="162.4" id="linearGradient7" spreadMethod="reflect">
        <stop stop-opacity="1" stop-color="rgb(232,238,247)" offset="0%"/>
        <stop stop-opacity="1" stop-color="rgb(183,201,227)" offset="100%"/>
      </linearGradient>
      <linearGradient x1="696.5385" gradientUnits="userSpaceOnUse" x2="776.5385" y1="122.4" y2="162.4" id="linearGradient8" spreadMethod="reflect">
        <stop stop-opacity="1" stop-color="rgb(232,238,247)" offset="0%"/>
        <stop stop-opacity="1" stop-color="rgb(183,201,227)" offset="100%"/>
      </linearGradient>
      <linearGradient x1="696.5385" gradientUnits="userSpaceOnUse" x2="776.5385" y1="590.1875" y2="630.1875" id="linearGradient9" spreadMethod="reflect">
        <stop stop-opacity="1" stop-color="rgb(232,238,247)" offset="0%"/>
        <stop stop-opacity="1" stop-color="rgb(183,201,227)" offset="100%"/>
      </linearGradient>
      <linearGradient x1="959.7979" gradientUnits="userSpaceOnUse" x2="1039.7979" y1="122.4" y2="162.4" id="linearGradient10" spreadMethod="reflect">
        <stop stop-opacity="1" stop-color="rgb(232,238,247)" offset="0%"/>
        <stop stop-opacity="1" stop-color="rgb(183,201,227)" offset="100%"/>
      </linearGradient>
      <linearGradient x1="959.7979" gradientUnits="userSpaceOnUse" x2="1039.7979" y1="735.4375" y2="775.4375" id="linearGradient11" spreadMethod="reflect">
        <stop stop-opacity="1" stop-color="rgb(232,238,247)" offset="0%"/>
        <stop stop-opacity="1" stop-color="rgb(183,201,227)" offset="100%"/>
      </linearGradient>
      <linearGradient x1="828.1682" gradientUnits="userSpaceOnUse" x2="908.1682" y1="122.4" y2="162.4" id="linearGradient12" spreadMethod="reflect">
        <stop stop-opacity="1" stop-color="rgb(204,153,255)" offset="0%"/>
        <stop stop-opacity="1" stop-color="rgb(204,255,255)" offset="100%"/>
      </linearGradient>
      <linearGradient x1="1222.6775" gradientUnits="userSpaceOnUse" x2="1302.6775" y1="122.4" y2="162.4" id="linearGradient13" spreadMethod="reflect">
        <stop stop-opacity="1" stop-color="rgb(232,238,247)" offset="0%"/>
        <stop stop-opacity="1" stop-color="yellow" offset="100%"/>
      </linearGradient>
      <linearGradient x1="1222.6775" gradientUnits="userSpaceOnUse" x2="1302.6775" y1="877.6875" y2="917.6875" id="linearGradient14" spreadMethod="reflect">
        <stop stop-opacity="1" stop-color="rgb(255,255,153)" offset="0%"/>
        <stop stop-opacity="1" stop-color="rgb(183,201,227)" offset="100%"/>
      </linearGradient>
      <linearGradient x1="1341.151" gradientUnits="userSpaceOnUse" x2="1499.276" y1="944.9688" y2="984.9688" id="linearGradient15" spreadMethod="reflect">
        <stop stop-opacity="1" stop-color="rgb(232,238,247)" offset="0%"/>
        <stop stop-opacity="1" stop-color="rgb(183,201,227)" offset="100%"/>
      </linearGradient>
      <linearGradient x1="1544.427" gradientUnits="userSpaceOnUse" x2="1702.552" y1="944.9688" y2="984.9688" id="linearGradient16" spreadMethod="reflect">
        <stop stop-opacity="1" stop-color="rgb(232,238,247)" offset="0%"/>
        <stop stop-opacity="1" stop-color="rgb(183,201,227)" offset="100%"/>
      </linearGradient>
      <clipPath clipPathUnits="userSpaceOnUse" id="clipPath1">
        <path d="M0 0 L1658 0 L1658 1068 L0 1068 L0 0 Z"/>
      </clipPath>
      <clipPath clipPathUnits="userSpaceOnUse" id="clipPath2">
        <path d="M77 36 L1735 36 L1735 1104 L77 1104 L77 36 Z"/>
      </clipPath>
      <clipPath clipPathUnits="userSpaceOnUse" id="clipPath3">
        <path d="M215.3438 -18.5844 L215.3438 1639.4156 L-852.6562 1639.4156 L-852.6562 -18.5844 L215.3438 -18.5844 Z"/>
      </clipPath>
      <clipPath clipPathUnits="userSpaceOnUse" id="clipPath4">
        <path d="M453.4258 -18.5844 L453.4258 1639.4156 L-614.5742 1639.4156 L-614.5742 -18.5844 L453.4258 -18.5844 Z"/>
      </clipPath>
      <clipPath clipPathUnits="userSpaceOnUse" id="clipPath5">
        <path d="M614.0049 -18.5844 L614.0049 1639.4156 L-453.9951 1639.4156 L-453.9951 -18.5844 L614.0049 -18.5844 Z"/>
      </clipPath>
      <clipPath clipPathUnits="userSpaceOnUse" id="clipPath6">
        <path d="M769.7861 -18.5844 L769.7861 1639.4156 L-298.2139 1639.4156 L-298.2139 -18.5844 L769.7861 -18.5844 Z"/>
      </clipPath>
      <clipPath clipPathUnits="userSpaceOnUse" id="clipPath7">
        <path d="M963.9775 -18.5844 L963.9775 1639.4156 L-104.0225 1639.4156 L-104.0225 -18.5844 L963.9775 -18.5844 Z"/>
      </clipPath>
    </defs>
    <g fill="white" text-rendering="geometricPrecision" shape-rendering="geometricPrecision" transform="translate(-77,-36)" stroke="white">
      <rect x="77" width="1658" height="1068" y="36" clip-path="url(#clipPath2)" stroke="none"/>
    </g>
    <g fill="rgb(236,245,255)" text-rendering="geometricPrecision" shape-rendering="geometricPrecision" transform="matrix(1,0,0,1,-77,-36)" stroke="rgb(236,245,255)">
      <path d="M92.5844 51 L92.5844 81 L1719.6342 81 L1719.6342 51 Z" stroke="none" clip-path="url(#clipPath2)"/>
      <rect x="92.5844" width="1627.0498" height="1007.5625" y="81" clip-path="url(#clipPath2)" stroke="none"/>
      <line clip-path="url(#clipPath2)" fill="rgb(113,146,178)" x1="116.5844" x2="1719.6342" y1="81" y2="81" stroke="none"/>
      <rect x="92.5844" y="81" clip-path="url(#clipPath2)" fill="rgb(196,215,237)" width="24" height="308" stroke="none"/>
      <rect x="116.5844" y="81" clip-path="url(#clipPath2)" fill="rgb(196,215,237)" width="1603.0498" height="308" stroke="none"/>
      <rect x="92.5844" y="389" clip-path="url(#clipPath2)" fill="rgb(171,200,226)" width="24" height="140.8125" stroke="none"/>
      <rect x="116.5844" y="389" clip-path="url(#clipPath2)" fill="rgb(171,200,226)" width="1603.0498" height="140.8125" stroke="none"/>
      <rect x="92.5844" y="529.8125" clip-path="url(#clipPath2)" fill="rgb(196,215,237)" width="24" height="139.6875" stroke="none"/>
      <rect x="116.5844" y="529.8125" clip-path="url(#clipPath2)" fill="rgb(196,215,237)" width="1603.0498" height="139.6875" stroke="none"/>
      <rect x="92.5844" y="669.5" clip-path="url(#clipPath2)" fill="rgb(171,200,226)" width="24" height="171.875" stroke="none"/>
      <rect x="116.5844" y="669.5" clip-path="url(#clipPath2)" fill="rgb(171,200,226)" width="1603.0498" height="171.875" stroke="none"/>
      <rect x="92.5844" y="841.375" clip-path="url(#clipPath2)" fill="rgb(196,215,237)" width="24" height="247.1875" stroke="none"/>
      <rect x="116.5844" y="841.375" clip-path="url(#clipPath2)" fill="rgb(196,215,237)" width="1603.0498" height="247.1875" stroke="none"/>
    </g>
    <g text-rendering="geometricPrecision" stroke-miterlimit="1.45" shape-rendering="geometricPrecision" transform="matrix(1,0,0,1,-77,-36)" stroke-linecap="butt">
      <rect fill="none" x="92.5844" width="1627.0498" height="1037.5625" y="51" clip-path="url(#clipPath2)"/>
      <rect fill="none" x="116.5844" width="1603.0498" height="1007.5625" y="81" clip-path="url(#clipPath2)"/>
      <rect fill="none" x="92.5844" width="1627.0498" height="308" y="81" clip-path="url(#clipPath2)"/>
      <rect fill="none" x="92.5844" width="1627.0498" height="140.8125" y="389" clip-path="url(#clipPath2)"/>
      <rect fill="none" x="92.5844" width="1627.0498" height="139.6875" y="529.8125" clip-path="url(#clipPath2)"/>
      <rect fill="none" x="92.5844" width="1627.0498" height="171.875" y="669.5" clip-path="url(#clipPath2)"/>
      <rect fill="none" x="92.5844" width="1627.0498" height="247.1875" y="841.375" clip-path="url(#clipPath2)"/>
    </g>
    <g font-size="15px" stroke-linecap="butt" transform="matrix(1,0,0,1,-77,-36)" text-rendering="geometricPrecision" font-family="sans-serif" shape-rendering="geometricPrecision" stroke-miterlimit="1.45">
      <text x="830.2303" xml:space="preserve" y="72.0806" clip-path="url(#clipPath2)" stroke="none">Container changes QA</text>
    </g>
    <g text-rendering="geometricPrecision" stroke-miterlimit="1.45" shape-rendering="geometricPrecision" font-family="sans-serif" transform="matrix(-0,-1,1,-0,18.5844,215.3438)" stroke-linecap="butt">
      <text x="2" xml:space="preserve" y="14.0645" clip-path="url(#clipPath3)" stroke="none">Local</text>
    </g>
    <g text-rendering="geometricPrecision" stroke-miterlimit="1.45" shape-rendering="geometricPrecision" font-family="sans-serif" transform="matrix(-0,-1,1,-0,18.5844,453.4258)" stroke-linecap="butt">
      <text x="2" xml:space="preserve" y="14.0645" clip-path="url(#clipPath4)" stroke="none">Code repo</text>
    </g>
    <g text-rendering="geometricPrecision" stroke-miterlimit="1.45" shape-rendering="geometricPrecision" font-family="sans-serif" transform="matrix(-0,-1,1,-0,18.5844,614.0049)" stroke-linecap="butt">
      <text x="2" xml:space="preserve" y="14.0645" clip-path="url(#clipPath5)" stroke="none">Cloud img registry</text>
    </g>
    <g text-rendering="geometricPrecision" stroke-miterlimit="1.45" shape-rendering="geometricPrecision" font-family="sans-serif" transform="matrix(-0,-1,1,-0,18.5844,769.7861)" stroke-linecap="butt">
      <text x="2" xml:space="preserve" y="14.0645" clip-path="url(#clipPath6)" stroke="none">Nogui img registry</text>
    </g>
    <g text-rendering="geometricPrecision" stroke-miterlimit="1.45" shape-rendering="geometricPrecision" font-family="sans-serif" transform="matrix(-0,-1,1,-0,18.5844,963.9775)" stroke-linecap="butt">
      <text x="2" xml:space="preserve" y="14.0645" clip-path="url(#clipPath7)" stroke="none">Docker Host</text>
    </g>
    <g fill="url(#linearGradient1)" text-rendering="geometricPrecision" shape-rendering="geometricPrecision" transform="matrix(1,0,0,1,-77,-36)" stroke="url(#linearGradient1)">
      <path d="M256.5385 122.4 L336.5385 122.4 L336.5385 162.4 L256.5385 162.4 Z" stroke="none" clip-path="url(#clipPath2)"/>
    </g>
    <g text-rendering="geometricPrecision" stroke-miterlimit="1.45" shape-rendering="geometricPrecision" transform="matrix(1,0,0,1,-77,-36)" stroke-linecap="butt">
      <path fill="none" d="M256.5385 122.4 L336.5385 122.4 L336.5385 162.4 L256.5385 162.4 Z" clip-path="url(#clipPath2)"/>
      <text x="282.1948" xml:space="preserve" y="147.1139" clip-path="url(#clipPath2)" font-family="sans-serif" stroke="none">Code</text>
    </g>
    <g fill="url(#linearGradient2)" text-rendering="geometricPrecision" shape-rendering="geometricPrecision" transform="matrix(1,0,0,1,-77,-36)" stroke="url(#linearGradient2)">
      <path d="M366.5385 122.4 L446.5385 122.4 L446.5385 162.4 L366.5385 162.4 Z" stroke="none" clip-path="url(#clipPath2)"/>
    </g>
    <g text-rendering="geometricPrecision" stroke-miterlimit="1.45" shape-rendering="geometricPrecision" transform="matrix(1,0,0,1,-77,-36)" stroke-linecap="butt">
      <path fill="none" d="M366.5385 122.4 L446.5385 122.4 L446.5385 162.4 L366.5385 162.4 Z" clip-path="url(#clipPath2)"/>
      <text x="394.8696" xml:space="preserve" y="147.1139" clip-path="url(#clipPath2)" font-family="sans-serif" stroke="none">Test</text>
    </g>
    <g fill="url(#linearGradient3)" text-rendering="geometricPrecision" shape-rendering="geometricPrecision" transform="matrix(1,0,0,1,-77,-36)" stroke="url(#linearGradient3)">
      <path d="M146.5385 122.4 L226.5385 122.4 L226.5385 162.4 L146.5385 162.4 Z" stroke="none" clip-path="url(#clipPath2)"/>
    </g>
    <g text-rendering="geometricPrecision" stroke-miterlimit="1.45" shape-rendering="geometricPrecision" transform="matrix(1,0,0,1,-77,-36)" stroke-linecap="butt">
      <path fill="none" d="M146.5385 122.4 L226.5385 122.4 L226.5385 162.4 L146.5385 162.4 Z" clip-path="url(#clipPath2)"/>
      <text x="161.1909" xml:space="preserve" y="147.1139" clip-path="url(#clipPath2)" font-family="sans-serif" stroke="none">Checkout</text>
    </g>
    <g fill="url(#linearGradient4)" text-rendering="geometricPrecision" shape-rendering="geometricPrecision" transform="matrix(1,0,0,1,-77,-36)" stroke="url(#linearGradient4)">
      <path d="M476.5385 122.4 L556.5385 122.4 L556.5385 162.4 L476.5385 162.4 Z" stroke="none" clip-path="url(#clipPath2)"/>
    </g>
    <g text-rendering="geometricPrecision" stroke-miterlimit="1.45" shape-rendering="geometricPrecision" transform="matrix(1,0,0,1,-77,-36)" stroke-linecap="butt">
      <path fill="none" d="M476.5385 122.4 L556.5385 122.4 L556.5385 162.4 L476.5385 162.4 Z" clip-path="url(#clipPath2)"/>
      <text x="495.8725" xml:space="preserve" y="147.1139" clip-path="url(#clipPath2)" font-family="sans-serif" stroke="none">Commit</text>
    </g>
    <g fill="url(#linearGradient5)" text-rendering="geometricPrecision" shape-rendering="geometricPrecision" transform="matrix(1,0,0,1,-77,-36)" stroke="url(#linearGradient5)">
      <path d="M146.5385 446.8 L226.5385 446.8 L226.5385 486.8 L146.5385 486.8 Z" stroke="none" clip-path="url(#clipPath2)"/>
    </g>
    <g text-rendering="geometricPrecision" stroke-miterlimit="1.45" shape-rendering="geometricPrecision" transform="matrix(1,0,0,1,-77,-36)" stroke-linecap="butt">
      <path fill="none" d="M146.5385 446.8 L226.5385 446.8 L226.5385 486.8 L146.5385 486.8 Z" clip-path="url(#clipPath2)"/>
      <text x="177.5385" xml:space="preserve" y="471.5139" clip-path="url(#clipPath2)" font-family="sans-serif" stroke="none">Src</text>
    </g>
    <g fill="url(#linearGradient6)" text-rendering="geometricPrecision" shape-rendering="geometricPrecision" transform="matrix(1,0,0,1,-77,-36)" stroke="url(#linearGradient6)">
      <path d="M461.276 446.8 L541.276 446.8 L541.276 486.8 L461.276 486.8 Z" stroke="none" clip-path="url(#clipPath2)"/>
    </g>
    <g text-rendering="geometricPrecision" stroke-miterlimit="1.45" shape-rendering="geometricPrecision" transform="matrix(1,0,0,1,-77,-36)" stroke-linecap="butt">
      <path fill="none" d="M461.276 446.8 L541.276 446.8 L541.276 486.8 L461.276 486.8 Z" clip-path="url(#clipPath2)"/>
      <text x="492.276" xml:space="preserve" y="471.5139" clip-path="url(#clipPath2)" font-family="sans-serif" stroke="none">Src</text>
    </g>
    <g fill="url(#linearGradient7)" text-rendering="geometricPrecision" shape-rendering="geometricPrecision" transform="matrix(1,0,0,1,-77,-36)" stroke="url(#linearGradient7)">
      <path d="M586.5385 122.4 L666.5385 122.4 L666.5385 162.4 L586.5385 162.4 Z" stroke="none" clip-path="url(#clipPath2)"/>
    </g>
    <g text-rendering="geometricPrecision" stroke-miterlimit="1.45" shape-rendering="geometricPrecision" transform="matrix(1,0,0,1,-77,-36)" stroke-linecap="butt">
      <path fill="none" d="M586.5385 122.4 L666.5385 122.4 L666.5385 162.4 L586.5385 162.4 Z" clip-path="url(#clipPath2)"/>
      <text x="595.1879" xml:space="preserve" y="147.1139" clip-path="url(#clipPath2)" font-family="sans-serif" stroke="none">Build image</text>
    </g>
    <g fill="url(#linearGradient8)" text-rendering="geometricPrecision" shape-rendering="geometricPrecision" transform="matrix(1,0,0,1,-77,-36)" stroke="url(#linearGradient8)">
      <path d="M696.5385 122.4 L776.5385 122.4 L776.5385 162.4 L696.5385 162.4 Z" stroke="none" clip-path="url(#clipPath2)"/>
    </g>
    <g text-rendering="geometricPrecision" stroke-miterlimit="1.45" shape-rendering="geometricPrecision" transform="matrix(1,0,0,1,-77,-36)" stroke-linecap="butt">
      <path fill="none" d="M696.5385 122.4 L776.5385 122.4 L776.5385 162.4 L696.5385 162.4 Z" clip-path="url(#clipPath2)"/>
      <text x="722.8627" xml:space="preserve" y="147.1139" clip-path="url(#clipPath2)" font-family="sans-serif" stroke="none">Push</text>
    </g>
    <g fill="url(#linearGradient9)" text-rendering="geometricPrecision" shape-rendering="geometricPrecision" transform="matrix(1,0,0,1,-77,-36)" stroke="url(#linearGradient9)">
      <path d="M696.5385 590.1875 L776.5385 590.1875 L776.5385 630.1875 L696.5385 630.1875 Z" stroke="none" clip-path="url(#clipPath2)"/>
    </g>
    <g text-rendering="geometricPrecision" stroke-miterlimit="1.45" shape-rendering="geometricPrecision" transform="matrix(1,0,0,1,-77,-36)" stroke-linecap="butt">
      <path fill="none" d="M696.5385 590.1875 L776.5385 590.1875 L776.5385 630.1875 L696.5385 630.1875 Z" clip-path="url(#clipPath2)"/>
      <text x="719.8627" xml:space="preserve" y="614.9014" clip-path="url(#clipPath2)" font-family="sans-serif" stroke="none">Image</text>
    </g>
    <g fill="url(#linearGradient10)" text-rendering="geometricPrecision" shape-rendering="geometricPrecision" transform="matrix(1,0,0,1,-77,-36)" stroke="url(#linearGradient10)">
      <path d="M959.7979 122.4 L1039.7979 122.4 L1039.7979 162.4 L959.7979 162.4 Z" stroke="none" clip-path="url(#clipPath2)"/>
    </g>
    <g text-rendering="geometricPrecision" stroke-miterlimit="1.45" shape-rendering="geometricPrecision" transform="matrix(1,0,0,1,-77,-36)" stroke-linecap="butt">
      <path fill="none" d="M959.7979 122.4 L1039.7979 122.4 L1039.7979 162.4 L959.7979 162.4 Z" clip-path="url(#clipPath2)"/>
      <text x="986.1221" xml:space="preserve" y="147.1139" clip-path="url(#clipPath2)" font-family="sans-serif" stroke="none">Push</text>
    </g>
    <g fill="url(#linearGradient11)" text-rendering="geometricPrecision" shape-rendering="geometricPrecision" transform="matrix(1,0,0,1,-77,-36)" stroke="url(#linearGradient11)">
      <path d="M959.7979 735.4375 L1039.7979 735.4375 L1039.7979 775.4375 L959.7979 775.4375 Z" stroke="none" clip-path="url(#clipPath2)"/>
    </g>
    <g text-rendering="geometricPrecision" stroke-miterlimit="1.45" shape-rendering="geometricPrecision" transform="matrix(1,0,0,1,-77,-36)" stroke-linecap="butt">
      <path fill="none" d="M959.7979 735.4375 L1039.7979 735.4375 L1039.7979 775.4375 L959.7979 775.4375 Z" clip-path="url(#clipPath2)"/>
      <text x="983.1221" xml:space="preserve" y="760.1514" clip-path="url(#clipPath2)" font-family="sans-serif" stroke="none">Image</text>
    </g>
    <g fill="url(#linearGradient12)" text-rendering="geometricPrecision" shape-rendering="geometricPrecision" transform="matrix(1,0,0,1,-77,-36)" stroke="url(#linearGradient12)">
      <path d="M828.1682 122.4 L908.1682 122.4 L908.1682 162.4 L828.1682 162.4 Z" stroke="none" clip-path="url(#clipPath2)"/>
    </g>
    <g stroke-linecap="butt" transform="matrix(1,0,0,1,-77,-36)" fill="purple" text-rendering="geometricPrecision" shape-rendering="geometricPrecision" stroke-dasharray="6,2" stroke="purple" stroke-miterlimit="1.45">
      <path fill="none" d="M828.1682 122.4 L908.1682 122.4 L908.1682 162.4 L828.1682 162.4 Z" clip-path="url(#clipPath2)"/>
    </g>
    <g text-rendering="geometricPrecision" stroke-miterlimit="1.45" shape-rendering="geometricPrecision" font-family="sans-serif" transform="matrix(1,0,0,1,-77,-36)" stroke-linecap="butt">
      <text x="858.1633" xml:space="preserve" y="147.1139" clip-path="url(#clipPath2)" stroke="none">Pull</text>
    </g>
    <g fill="url(#linearGradient13)" text-rendering="geometricPrecision" shape-rendering="geometricPrecision" transform="matrix(1,0,0,1,-77,-36)" stroke="url(#linearGradient13)">
      <path d="M1222.6775 122.4 L1302.6775 122.4 L1302.6775 162.4 L1222.6775 162.4 Z" stroke="none" clip-path="url(#clipPath2)"/>
    </g>
    <g stroke-linecap="butt" transform="matrix(1,0,0,1,-77,-36)" fill="yellow" text-rendering="geometricPrecision" shape-rendering="geometricPrecision" stroke="yellow" stroke-miterlimit="1.45">
      <path fill="none" d="M1222.6775 122.4 L1302.6775 122.4 L1302.6775 162.4 L1222.6775 162.4 Z" clip-path="url(#clipPath2)"/>
      <text x="1243.6638" y="147.1139" clip-path="url(#clipPath2)" fill="black" font-family="sans-serif" stroke="none" xml:space="preserve">Upload</text>
    </g>
    <g fill="url(#linearGradient14)" text-rendering="geometricPrecision" shape-rendering="geometricPrecision" transform="matrix(1,0,0,1,-77,-36)" stroke="url(#linearGradient14)">
      <path d="M1222.6775 877.6875 L1302.6775 877.6875 L1302.6775 917.6875 L1222.6775 917.6875 Z" stroke="none" clip-path="url(#clipPath2)"/>
    </g>
    <g text-rendering="geometricPrecision" stroke-miterlimit="1.45" shape-rendering="geometricPrecision" transform="matrix(1,0,0,1,-77,-36)" stroke-linecap="butt">
      <path fill="none" d="M1222.6775 877.6875 L1302.6775 877.6875 L1302.6775 917.6875 L1222.6775 917.6875 Z" clip-path="url(#clipPath2)"/>
      <text x="1241.6687" xml:space="preserve" y="902.4014" clip-path="url(#clipPath2)" font-family="sans-serif" stroke="none">Env_list</text>
    </g>
    <g fill="url(#linearGradient15)" text-rendering="geometricPrecision" shape-rendering="geometricPrecision" transform="matrix(1,0,0,1,-77,-36)" stroke="url(#linearGradient15)">
      <path d="M1341.151 944.9688 L1499.276 944.9688 L1499.276 984.9688 L1341.151 984.9688 Z" stroke="none" clip-path="url(#clipPath2)"/>
    </g>
    <g text-rendering="geometricPrecision" stroke-miterlimit="1.45" shape-rendering="geometricPrecision" transform="matrix(1,0,0,1,-77,-36)" stroke-linecap="butt">
      <path fill="none" d="M1341.151 944.9688 L1499.276 944.9688 L1499.276 984.9688 L1341.151 984.9688 Z" clip-path="url(#clipPath2)"/>
      <text x="1358.8541" xml:space="preserve" y="969.6826" clip-path="url(#clipPath2)" font-family="sans-serif" stroke="none">Docker-compose down</text>
    </g>
    <g fill="url(#linearGradient16)" text-rendering="geometricPrecision" shape-rendering="geometricPrecision" transform="matrix(1,0,0,1,-77,-36)" stroke="url(#linearGradient16)">
      <path d="M1544.427 944.9688 L1702.552 944.9688 L1702.552 984.9688 L1544.427 984.9688 Z" stroke="none" clip-path="url(#clipPath2)"/>
    </g>
    <g text-rendering="geometricPrecision" stroke-miterlimit="1.45" shape-rendering="geometricPrecision" transform="matrix(1,0,0,1,-77,-36)" stroke-linecap="butt">
      <path fill="none" d="M1544.427 944.9688 L1702.552 944.9688 L1702.552 984.9688 L1544.427 984.9688 Z" clip-path="url(#clipPath2)"/>
      <text x="1551.4602" xml:space="preserve" y="969.6826" clip-path="url(#clipPath2)" font-family="sans-serif" stroke="none">Docker-compose up --build</text>
    </g>
    <g text-rendering="geometricPrecision" stroke-miterlimit="1.45" shape-rendering="geometricPrecision" transform="matrix(1,0,0,1,-77,-36)" stroke-linecap="butt">
      <path fill="none" d="M323.0449 122.396 L324.0385 121.775 L337.7885 116.6187 L351.5385 114.9 L365.2885 116.6187 L372.6264 119.3704 L372.7112 119.4234" clip-path="url(#clipPath2)"/>
    </g>
    <g text-rendering="geometricPrecision" stroke-miterlimit="1.45" shape-rendering="geometricPrecision" transform="matrix(1,0,0,1,-77,-36)" stroke-linecap="butt">
      <path d="M380.1235 122.4331 L370.8861 113.2859 L371.7847 119.0472 L367.124 122.5513 Z" stroke="none" clip-path="url(#clipPath2)"/>
      <path fill="none" d="M213.0449 122.396 L214.0385 121.775 L227.7885 116.6187 L241.5385 114.9 L255.2885 116.6187 L262.6264 119.3704 L262.7112 119.4234" clip-path="url(#clipPath2)"/>
      <path d="M270.1235 122.4331 L260.8861 113.2859 L261.7847 119.0472 L257.124 122.5513 Z" clip-path="url(#clipPath2)" stroke="none"/>
      <path fill="none" d="M433.0449 122.396 L434.0385 121.775 L447.7885 116.6187 L461.5385 114.9 L475.2885 116.6187 L482.6264 119.3704 L482.7112 119.4234" clip-path="url(#clipPath2)"/>
      <path d="M490.1235 122.4331 L480.8861 113.2859 L481.7847 119.0472 L477.124 122.5513 Z" clip-path="url(#clipPath2)" stroke="none"/>
      <path fill="none" d="M196.0862 446.8022 L196.2185 446.525 L204.6078 426.25 L211.7065 405.975 L217.5145 385.7 L222.0318 365.425 L225.2585 345.15 L227.1945 324.875 L227.8398 304.6 L227.1945 284.325 L225.2585 264.05 L222.0318 243.775 L217.5145 223.5 L211.7065 203.225 L204.6078 182.95 L199.1599 169.7837 L199.1169 169.6935" clip-path="url(#clipPath2)"/>
      <path d="M196.0479 162.3056 L196.0339 175.3056 L199.5005 170.617 L205.2688 171.4693 Z" clip-path="url(#clipPath2)" stroke="none"/>
      <path fill="none" d="M518.0607 162.4343 L519.6373 183.1855 L521.3057 223.9038 L521.5436 264.5547 L520.351 305.1384 L517.728 345.6548 L513.6744 386.1038 L508.1905 426.4855 L506.0653 438.876" clip-path="url(#clipPath2)"/>
      <path d="M504.713 446.7609 L511.6696 435.7788 L506.2344 437.8904 L501.8135 434.0883 Z" clip-path="url(#clipPath2)" stroke="none"/>
      <path fill="none" d="M543.0449 122.396 L544.0385 121.775 L557.7885 116.6187 L571.5385 114.9 L585.2885 116.6187 L592.6263 119.3704 L592.7111 119.4234" clip-path="url(#clipPath2)"/>
      <path d="M600.1234 122.4331 L590.886 113.2859 L591.7846 119.0472 L587.124 122.5513 Z" clip-path="url(#clipPath2)" stroke="none"/>
      <path fill="none" d="M653.0449 122.396 L654.0385 121.775 L667.7885 116.6187 L681.5385 114.9 L695.2885 116.6187 L702.6263 119.3704 L702.7111 119.4234" clip-path="url(#clipPath2)"/>
      <path d="M710.1234 122.4331 L700.886 113.2859 L701.7846 119.0472 L697.124 122.5513 Z" clip-path="url(#clipPath2)" stroke="none"/>
      <path fill="none" stroke-dasharray="6,2" d="M541.257 459.6854 L546.3668 458.9916 L567.2319 457.8444 L586.9767 458.5352 L605.6014 461.0639 L623.1058 465.4307 L639.4901 471.6354 L654.7541 479.6782 L668.8979 489.5589 L681.9215 501.2776 L693.8249 514.8342 L704.608 530.2289 L714.2709 547.4616 L722.8137 566.5322 L728.4991 582.5476 L728.5258 582.644" clip-path="url(#clipPath2)" stroke="purple"/>
      <path fill="purple" stroke-dasharray="6,2" d="M731.0182 590.2458 L732.0307 577.2853 L728.2142 581.6937 L722.5284 580.4008 Z" clip-path="url(#clipPath2)" stroke="none"/>
      <rect x="579.2486" y="497.4558" clip-path="url(#clipPath2)" fill="rgb(204,153,255)" width="80.0488" stroke-dasharray="6,2" height="18.7012" stroke="none"/>
      <text x="581.2486" xml:space="preserve" y="511.5203" clip-path="url(#clipPath2)" font-family="sans-serif" stroke="none">Opt. Autobuild</text>
      <path fill="none" d="M755.3022 162.4146 L763.9479 171.6367 L787.7028 200.8734 L807.803 230.1102 L824.2487 259.3469 L837.0397 288.5836 L846.1762 317.8203 L851.6581 347.057 L853.4854 376.2938 L851.6581 405.5305 L846.1762 434.7672 L837.0397 464.0039 L824.2487 493.2406 L807.803 522.4774 L787.7028 551.7141 L763.9479 580.9508 L760.7737 584.3366" clip-path="url(#clipPath2)"/>
      <path d="M755.3022 590.1729 L767.1572 584.8382 L761.4576 583.6071 L759.8618 577.9988 Z" clip-path="url(#clipPath2)" stroke="none"/>
      <path fill="none" d="M766.2645 122.4132 L769.4459 120.4419 L785.8997 111.8156 L802.3533 104.7576 L818.8071 99.2681 L835.2608 95.347 L851.7145 92.9944 L868.1682 92.2102 L884.6219 92.9944 L901.0756 95.347 L917.5293 99.2681 L933.983 104.7576 L950.4367 111.8156 L963.1154 118.4627 L963.2004 118.5154" clip-path="url(#clipPath2)"/>
      <path d="M970.1588 122.4625 L962.188 112.1928 L962.3306 118.022 L957.2542 120.8909 Z" clip-path="url(#clipPath2)" stroke="none"/>
      <path fill="none" d="M999.7979 162.418 L999.7979 727.4216" clip-path="url(#clipPath2)"/>
      <path d="M999.7979 735.4216 L1004.7979 723.4216 L999.7979 726.4216 L994.7979 723.4216 Z" clip-path="url(#clipPath2)" stroke="none"/>
      <path fill="none" stroke-dasharray="6,2" d="M766.5734 590.1993 L769.86 588.0121 L799.8355 564.8952 L826.4651 540.8367 L849.7487 515.8369 L869.6864 489.8954 L886.2781 463.0125 L899.5239 435.188 L909.4237 406.422 L915.9776 376.7145 L919.1855 346.0656 L919.0475 314.4751 L915.5635 281.9431 L908.7336 248.4696 L898.5577 214.0546 L885.0359 178.698 L880.8464 169.6826" clip-path="url(#clipPath2)" stroke="purple"/>
      <path fill="purple" stroke-dasharray="6,2" d="M877.475 162.4277 L877.9978 175.4172 L881.2679 170.5895 L887.0665 171.203 Z" clip-path="url(#clipPath2)" stroke="none"/>
      <path fill="none" stroke-dasharray="6,2" d="M763.7578 162.4006 L769.4459 165.7663 L785.8997 171.6079 L802.3533 173.5551 L818.807 171.6079 L833.9297 166.2388 L834.0158 166.1879" clip-path="url(#clipPath2)" stroke="purple"/>
      <path fill="purple" stroke-dasharray="6,2" d="M841.0366 162.3527 L828.1084 163.7176 L833.1382 166.6673 L832.9025 172.4935 Z" clip-path="url(#clipPath2)" stroke="none"/>
      <path fill="none" stroke-dasharray="6,2" d="M889.7315 162.3947 L901.0756 170.4538 L909.3024 174.545 L917.5293 177.4673 L925.7562 179.2206 L933.983 179.8051 L942.2099 179.2206 L950.4367 177.4673 L958.6636 174.545 L966.8904 170.4538 L971.7127 167.0279" clip-path="url(#clipPath2)" stroke="purple"/>
      <path fill="purple" stroke-dasharray="6,2" d="M978.2345 162.3947 L965.5561 165.2684 L970.8975 167.6071 L971.3476 173.4206 Z" clip-path="url(#clipPath2)" stroke="none"/>
      <path fill="none" stroke-dasharray="6,2" d="M1016.5167 162.4026 L1032.6578 179.1779 L1049.0878 193.6264 L1065.5178 205.4478 L1081.9478 214.6423 L1098.3777 221.2098 L1114.8077 225.1503 L1131.2377 226.4638 L1147.6676 225.1503 L1164.0977 221.2098 L1180.5276 214.6423 L1196.9575 205.4478 L1213.3876 193.6264 L1229.8175 179.1779 L1240.4119 168.1674" clip-path="url(#clipPath2)" stroke="yellow"/>
      <path fill="yellow" stroke-dasharray="6,2" d="M1245.9587 162.4026 L1234.0355 167.5829 L1239.7185 168.888 L1241.2415 174.5165 Z" clip-path="url(#clipPath2)" stroke="none"/>
      <rect x="1005.6323" y="210.3545" clip-path="url(#clipPath2)" fill="yellow" width="118.7148" stroke-dasharray="6,2" height="18.7012" stroke="none"/>
      <text x="1007.6323" xml:space="preserve" y="224.4189" clip-path="url(#clipPath2)" font-family="sans-serif" stroke="none">Opt EnvironmentVars</text>
      <path fill="none" d="M1262.6775 162.3609 L1262.6775 869.7156" clip-path="url(#clipPath2)" stroke="yellow"/>
      <path fill="yellow" d="M1262.6775 877.7156 L1267.6775 865.7156 L1262.6775 868.7156 L1257.6775 865.7156 Z" clip-path="url(#clipPath2)" stroke="none"/>
      <path fill="none" d="M1442.8687 944.9734 L1445.623 942.7355 L1458.3278 934.0009 L1471.0325 926.8545 L1483.7373 921.2962 L1496.442 917.326 L1509.1467 914.9438 L1521.8516 914.1498 L1534.5563 914.9438 L1547.261 917.326 L1559.9658 921.2962 L1572.6705 926.8545 L1585.3752 934.0009 L1594.4069 940.2102 L1594.4845 940.2733" clip-path="url(#clipPath2)"/>
      <path d="M1600.9147 945.0328 L1594.2441 933.8747 L1593.6808 939.6783 L1588.2948 941.9124 Z" clip-path="url(#clipPath2)" stroke="none"/>
    </g>
  </g>
</svg>
